<?xml version="1.0" encoding="UTF-8" standalone="no"?>
<svg
   xmlns:dc="http://purl.org/dc/elements/1.1/"
   xmlns:cc="http://creativecommons.org/ns#"
   xmlns:rdf="http://www.w3.org/1999/02/22-rdf-syntax-ns#"
   xmlns:svg="http://www.w3.org/2000/svg"
   xmlns="http://www.w3.org/2000/svg"
   xmlns:sodipodi="http://sodipodi.sourceforge.net/DTD/sodipodi-0.dtd"
   xmlns:inkscape="http://www.inkscape.org/namespaces/inkscape"
   version="1.1"
   x="0px"
   y="0px"
   fill="aliceblue"
   stroke="darkblue"
   viewBox="0 0 90 90"
   enable-background="new 0 0 90 90"
   xml:space="preserve"
   id="svg275"
   inkscape:version="0.91 r13725"
   sodipodi:docname="mickey_waiting.svg"><metadata
     id="metadata283"><rdf:RDF><cc:Work
         rdf:about=""><dc:format>image/svg+xml</dc:format><dc:type
           rdf:resource="http://purl.org/dc/dcmitype/StillImage" /></cc:Work></rdf:RDF></metadata><defs
     id="defs281" /><sodipodi:namedview
     pagecolor="#ffffff"
     bordercolor="#666666"
     borderopacity="1"
     objecttolerance="10"
     gridtolerance="10"
     guidetolerance="10"
     inkscape:pageopacity="0"
     inkscape:pageshadow="2"
     inkscape:window-width="640"
     inkscape:window-height="480"
     id="namedview279"
     showgrid="false"
     inkscape:zoom="2.6222222"
     inkscape:cx="45"
     inkscape:cy="45"
     inkscape:window-x="0"
     inkscape:window-y="0"
     inkscape:window-maximized="0"
     inkscape:current-layer="svg275" /><path
     d="m 26.575382,42.59 c 0.103,0 0.202,0 0.298,0 0.144,-2.574 0.935,-4.928 2.375,-7.061 0.007,-0.01 0.012,-0.02 0.015,-0.031 1.968,-2.8 4.343,-4.167 7.124,-4.104 1.417,-0.013 2.753,0.317 4.01,0.991 1.15,-1.792 2.949,-2.689 5.394,-2.689 0.803,-0.053 1.604,0.093 2.407,0.44 -0.306,-2.682 -0.684,-5.613 -1.133,-8.791 -0.833,-6.09 -0.513,-10.546 0.959,-13.366 l 0.016,-0.016 c 1.776,-3.552 4.19,-5.13 7.249,-4.734 l -0.015,-0.016 c 2.856,0.237 5.042,1.521 6.557,3.853 l -0.016,-0.015 c 1.323,1.963 2.142,4.531 2.453,7.705 0.279,2.8 0.526,7.01 0.74,12.628 0.189,5.662 0.11,10.426 -0.236,14.295 -0.026,0.285 -0.1,0.549 -0.22,0.785 1.196,0.725 2.412,1.68 3.648,2.862 3.529,3.384 5.275,7.104 5.237,11.164 0.075,2.871 -1.367,6.137 -4.325,9.798 -1.683,2.166 -4.277,3.98 -7.784,5.441 0.459,0.882 0.669,1.768 0.629,2.656 0.128,3.252 -1.795,5.852 -5.771,7.8 l 0.016,-0.016 c -2.73,1.371 -5.734,2.262 -9.011,2.674 l -0.016,0 c -3.333,0.398 -6.676,0.032 -10.033,-1.101 l -0.017,-0.017 c -3.957,-1.268 -6.018,-4.456 -6.179,-9.562 -0.006,-0.161 0.005,-0.317 0.031,-0.472 -0.665,-0.436 -1.303,-0.956 -1.919,-1.556 -2.32,-2.242 -3.474,-4.879 -3.46,-7.91 -0.006,-0.307 0.046,-0.795 0.158,-1.462 0.055,-0.343 0.085,-0.567 0.095,-0.677 0,-0.049 0,-0.096 0,-0.143 -1.01,-0.541 -2.02,-1.301 -3.036,-2.279 l -0.015,-0.015 c -2.456,-2.357 -3.661,-4.92 -3.617,-7.69 0.011,-2.419 0.686,-4.537 2.028,-6.354 1.536,-2.084 3.324,-3.091 5.364,-3.015 z m 13.098,7.329 0.017,0.047 c -0.835,-1.558 -1.416,-3.198 -1.746,-4.923 l -0.016,0 c -0.232,-1.244 -0.348,-2.522 -0.346,-3.836 0.005,-1.751 0.283,-3.401 0.833,-4.954 -0.642,-0.334 -1.318,-0.507 -2.028,-0.52 -1.37,0.063 -2.56,0.813 -3.569,2.249 l 0.016,-0.031 c -1.096,1.63 -1.641,3.448 -1.636,5.457 -10e-4,2.418 0.587,4.645 1.761,6.684 l -0.015,-0.017 c 1.197,2.046 2.732,3.104 4.606,3.177 0.743,0.002 1.294,-0.26 1.651,-0.785 l 0,-0.017 c 0.337,-0.613 0.53,-1.391 0.583,-2.328 -0.039,-0.067 -0.076,-0.136 -0.111,-0.203 z m 20.994,-22.377 c -0.206,-5.495 -0.441,-9.61 -0.708,-12.344 -0.232,-2.362 -0.819,-4.28 -1.762,-5.756 l -0.015,-0.016 c -0.75,-1.149 -1.834,-1.772 -3.255,-1.871 l -0.016,-0.016 c -1.217,0.016 -2.219,0.807 -3.004,2.375 l 0.016,-0.016 c -1.043,2.295 -1.227,5.912 -0.55,10.851 0.778,5.557 1.344,10.374 1.699,14.451 0.047,0.479 -0.059,0.923 -0.314,1.337 -0.259,0.414 -0.616,0.707 -1.07,0.88 -0.451,0.176 -0.906,0.197 -1.367,0.063 -0.464,-0.137 -0.842,-0.398 -1.133,-0.787 -1.221,-1.627 -2.354,-2.513 -3.397,-2.658 -0.801,0 -1.404,0.262 -1.808,0.787 -0.413,0.661 -0.753,1.227 -1.023,1.698 -0.092,0.21 -0.165,0.393 -0.22,0.551 -0.016,0.031 -0.031,0.063 -0.047,0.094 -0.52,1.251 -0.776,2.599 -0.771,4.042 0.003,1.034 0.098,2.041 0.285,3.018 l -0.017,0 c 0.257,1.297 0.703,2.527 1.337,3.697 0.005,0.018 0.01,0.033 0.016,0.047 0.095,0.189 0.189,0.378 0.282,0.565 0.991,1.603 2.213,2.441 3.666,2.518 0.595,0.008 1.036,-0.238 1.321,-0.74 l -0.033,0.032 c 0.356,-0.731 0.535,-1.691 0.535,-2.879 -0.051,-0.383 -0.318,-1.212 -0.802,-2.483 -0.012,-0.027 -0.021,-0.054 -0.032,-0.079 -0.131,-0.304 -0.241,-0.575 -0.33,-0.818 -0.203,-0.561 -0.177,-1.111 0.079,-1.65 0.255,-0.548 0.664,-0.924 1.227,-1.133 0.559,-0.203 1.109,-0.178 1.651,0.079 0.545,0.255 0.924,0.666 1.131,1.227 0.071,0.197 0.161,0.423 0.268,0.675 0.006,0.018 0.011,0.034 0.016,0.049 0.328,-0.402 0.716,-0.77 1.163,-1.102 1.291,-0.996 2.968,-1.494 5.032,-1.494 0.583,-0.002 1.176,0.051 1.777,0.157 0.297,-3.651 0.353,-8.101 0.173,-13.351 z m -28.588,41.481 c 1.349,1.318 2.88,2.026 4.591,2.123 0.599,0.029 1.102,0.266 1.51,0.708 0.405,0.442 0.594,0.963 0.566,1.558 -0.028,0.6 -0.265,1.102 -0.708,1.509 -0.442,0.405 -0.961,0.595 -1.557,0.567 -0.362,-0.015 -0.719,-0.047 -1.069,-0.096 0.349,2.141 1.392,3.557 3.128,4.246 l -0.014,-0.015 c 2.718,0.92 5.428,1.224 8.129,0.911 l 0.016,0 c 2.755,-0.344 5.281,-1.089 7.58,-2.232 l 0.015,-0.017 c 2.108,-1.03 3.225,-2.331 3.351,-3.899 -0.052,-0.384 -0.23,-0.776 -0.535,-1.18 -1.104,0.318 -2.267,0.612 -3.491,0.882 -0.583,0.126 -1.129,0.026 -1.635,-0.299 -0.509,-0.321 -0.828,-0.772 -0.959,-1.353 -0.127,-0.585 -0.027,-1.129 0.299,-1.637 0.321,-0.507 0.771,-0.827 1.352,-0.958 6.36,-1.395 10.727,-3.491 13.099,-6.291 2.159,-2.673 3.275,-5.026 3.35,-7.061 -0.044,-2.901 -1.344,-5.574 -3.9,-8.021 l 0.016,0 c -1.62,-1.549 -3.182,-2.591 -4.686,-3.129 -0.619,-0.175 -1.221,-0.264 -1.809,-0.267 -0.998,0 -1.815,0.215 -2.454,0.645 -0.503,0.376 -0.746,0.905 -0.724,1.589 0.032,1.021 0.473,1.954 1.321,2.799 l 0,0.015 c 1.369,1.382 2.354,2.394 2.958,3.036 0.222,0.086 0.432,0.218 0.629,0.393 0.413,0.372 0.648,0.834 0.708,1.385 0.062,0.553 -0.07,1.055 -0.393,1.509 -0.329,0.449 -0.764,0.732 -1.306,0.85 -0.766,0.229 -1.825,0.113 -3.176,-0.346 -0.014,-0.013 -0.03,-0.022 -0.047,-0.032 -0.63,-0.23 -1.091,-0.361 -1.384,-0.395 -1.356,0.043 -2.762,0.604 -4.214,1.684 l 0.031,-0.016 c -1.333,1.024 -2.114,2.082 -2.343,3.176 -0.086,0.589 -0.368,1.061 -0.849,1.416 -0.484,0.365 -1.024,0.506 -1.621,0.425 -0.586,-0.086 -1.057,-0.368 -1.415,-0.849 -0.363,-0.484 -0.505,-1.025 -0.424,-1.62 0.204,-1.884 1.269,-3.666 3.191,-5.347 -1.452,-0.01 -2.778,-0.413 -3.978,-1.211 -0.089,0.174 -0.182,0.342 -0.283,0.504 l 0,-0.017 c -1.108,1.948 -2.908,2.923 -5.395,2.925 -0.326,0.008 -0.646,-0.004 -0.959,-0.031 -0.122,1.511 -0.824,2.784 -2.107,3.821 l -0.016,0.017 c -1.187,0.964 -2.639,1.478 -4.355,1.541 -0.021,0.156 -0.046,0.334 -0.078,0.535 l 0,0.014 c -0.057,0.34 -0.088,0.587 -0.095,0.74 0.014,1.836 0.727,3.433 2.139,4.796 z m -6.276,-12.502 0.016,0.017 c 1.354,1.307 2.675,1.994 3.964,2.062 0.772,0 1.428,-0.193 1.966,-0.583 l 0.016,-0.015 c 0.32,-0.265 0.487,-0.59 0.502,-0.976 0.002,-0.116 0.002,-0.205 0,-0.269 -0.02,-0.066 -0.046,-0.139 -0.078,-0.22 -0.118,-0.284 -0.177,-0.567 -0.173,-0.849 -1.044,-0.853 -1.981,-1.99 -2.814,-3.412 l -0.016,-0.016 c -0.894,-1.556 -1.528,-3.197 -1.902,-4.924 -0.258,-0.084 -0.494,-0.221 -0.707,-0.408 -0.687,0.074 -1.311,0.494 -1.873,1.259 -0.795,1.077 -1.188,2.335 -1.179,3.774 0.042,1.629 0.802,3.149 2.278,4.56 z"
     id="path277"
     inkscape:connector-curvature="0" /></svg>
