<?xml version="1.0" encoding="UTF-8" standalone="no"?>
<svg
   xmlns:dc="http://purl.org/dc/elements/1.1/"
   xmlns:cc="http://creativecommons.org/ns#"
   xmlns:rdf="http://www.w3.org/1999/02/22-rdf-syntax-ns#"
   xmlns:svg="http://www.w3.org/2000/svg"
   xmlns="http://www.w3.org/2000/svg"
   xmlns:sodipodi="http://sodipodi.sourceforge.net/DTD/sodipodi-0.dtd"
   xmlns:inkscape="http://www.inkscape.org/namespaces/inkscape"
   data-name="Warstwa 1"
   viewBox="0 0 82.120003 54"
   x="0px"
   y="0px"
   fill="gainsboro"
   id="svg2"
   version="1.1"
   inkscape:version="0.91 r13725"
   sodipodi:docname="mr_modern_scissors.svg"
   width="82.120003"
   height="54">
  <metadata
     id="metadata12">
    <rdf:RDF>
      <cc:Work
         rdf:about="">
        <dc:format>image/svg+xml</dc:format>
        <dc:type
           rdf:resource="http://purl.org/dc/dcmitype/StillImage" />
        <dc:title>hand_scissors</dc:title>
      </cc:Work>
    </rdf:RDF>
  </metadata>
  <defs
     id="defs10" />
  <sodipodi:namedview
     pagecolor="#ffffff"
     bordercolor="#666666"
     borderopacity="1"
     objecttolerance="10"
     gridtolerance="10"
     guidetolerance="10"
     inkscape:pageopacity="0"
     inkscape:pageshadow="2"
     inkscape:window-width="754"
     inkscape:window-height="480"
     id="namedview8"
     showgrid="false"
     fit-margin-top="0"
     fit-margin-left="0"
     fit-margin-right="0"
     fit-margin-bottom="0"
     inkscape:zoom="2.36"
     inkscape:cx="42"
     inkscape:cy="32"
     inkscape:window-x="0"
     inkscape:window-y="0"
     inkscape:window-maximized="0"
     inkscape:current-layer="svg2" />
  <title
     id="title4">hand_scissors</title>
  <path
     d="M 1.12,31.22 17.6,24 3.3,24 0.12,20.83 l 0,-7.66 3.17,-3.17 36.83,0 0,-6.83 3.17,-3.17 21.66,0 17.17,17.17 0,19.66 L 64.95,54 36.29,54 33.29,51 30.59,34.79 7.99,43.47 3.83,42.35 0,35.72 Z m 5.3,7.66 1.3,0.35 26,-10 3.27,19.77 1,1 25.3,0 14.83,-14.83 0,-16.34 L 63.29,4 44.95,4 l -0.83,0.83 0,5.17 10,0 0,4 -49.17,0 -0.83,0.83 0,4.34 0.83,0.83 25.17,0 0,2.87 -25.6,11.25 -0.27,1 z"
     id="path6"
     inkscape:connector-curvature="0" />
</svg>
