<?xml version="1.0" encoding="UTF-8" standalone="no"?>
<svg
   xmlns:dc="http://purl.org/dc/elements/1.1/"
   xmlns:cc="http://creativecommons.org/ns#"
   xmlns:rdf="http://www.w3.org/1999/02/22-rdf-syntax-ns#"
   xmlns:svg="http://www.w3.org/2000/svg"
   xmlns="http://www.w3.org/2000/svg"
   xmlns:sodipodi="http://sodipodi.sourceforge.net/DTD/sodipodi-0.dtd"
   xmlns:inkscape="http://www.inkscape.org/namespaces/inkscape"
   data-name="Warstwa 1"
   viewBox="0 0 84 54"
   x="0px"
   y="0px"
   fill="gainsboro"
   id="svg2"
   version="1.1"
   inkscape:version="0.91 r13725"
   sodipodi:docname="mr_modern_paper.svg"
   width="84"
   height="54">
  <metadata
     id="metadata12">
    <rdf:RDF>
      <cc:Work
         rdf:about="">
        <dc:format>image/svg+xml</dc:format>
        <dc:type
           rdf:resource="http://purl.org/dc/dcmitype/StillImage" />
        <dc:title>hand_paper</dc:title>
      </cc:Work>
    </rdf:RDF>
  </metadata>
  <defs
     id="defs10" />
  <sodipodi:namedview
     pagecolor="#ffffff"
     bordercolor="#666666"
     borderopacity="1"
     objecttolerance="10"
     gridtolerance="10"
     guidetolerance="10"
     inkscape:pageopacity="0"
     inkscape:pageshadow="2"
     inkscape:window-width="754"
     inkscape:window-height="480"
     id="namedview8"
     showgrid="false"
     fit-margin-top="0"
     fit-margin-left="0"
     fit-margin-right="0"
     fit-margin-bottom="0"
     inkscape:zoom="2.36"
     inkscape:cx="42"
     inkscape:cy="32"
     inkscape:window-x="0"
     inkscape:window-y="0"
     inkscape:window-maximized="0"
     inkscape:current-layer="svg2" />
  <title
     id="title4">hand_paper</title>
  <path
     d="M 20,50.83 20,44 11.17,44 8,40.83 8,34 3.17,34 0,30.83 0,23.17 3.17,20 6,20 6,13.17 9.17,10 32.17,10 31,8.83 31,3.17 34.17,0 66.83,0 84,17.17 84,36.83 66.83,54 23.17,54 Z M 65.17,50 80,35.17 80,18.83 65.17,4 35.83,4 35,4.83 35,7.17 37.83,10 54,10 54,14 10.83,14 10,14.83 10,20 40,20 40,24 4.83,24 4,24.83 4,29.17 4.83,30 40,30 l 0,4 -28,0 0,5.17 0.83,0.83 27.17,0 0,4 -16,0 0,5.17 0.83,0.83 z"
     id="path6"
     inkscape:connector-curvature="0" />
</svg>
