<?xml version="1.0" encoding="UTF-8" standalone="no"?>
<svg
   xmlns:dc="http://purl.org/dc/elements/1.1/"
   xmlns:cc="http://creativecommons.org/ns#"
   xmlns:rdf="http://www.w3.org/1999/02/22-rdf-syntax-ns#"
   xmlns:svg="http://www.w3.org/2000/svg"
   xmlns="http://www.w3.org/2000/svg"
   xmlns:sodipodi="http://sodipodi.sourceforge.net/DTD/sodipodi-0.dtd"
   xmlns:inkscape="http://www.inkscape.org/namespaces/inkscape"
   data-name="Warstwa 1"
   viewBox="0 0 100 100"
   x="0px"
   y="0px"
   id="svg202"
   version="1.1"
   inkscape:version="0.91 r13725"
   sodipodi:docname="the_magician_paper.svg">
  <metadata
     id="metadata220">
    <rdf:RDF>
      <cc:Work
         rdf:about="">
        <dc:format>image/svg+xml</dc:format>
        <dc:type
           rdf:resource="http://purl.org/dc/dcmitype/StillImage" />
      </cc:Work>
    </rdf:RDF>
  </metadata>
  <defs
     id="defs218" />
  <sodipodi:namedview
     pagecolor="#ffffff"
     bordercolor="#666666"
     borderopacity="1"
     objecttolerance="10"
     gridtolerance="10"
     guidetolerance="10"
     inkscape:pageopacity="0"
     inkscape:pageshadow="2"
     inkscape:window-width="1280"
     inkscape:window-height="698"
     id="namedview216"
     showgrid="false"
     inkscape:zoom="2.36"
     inkscape:cx="50"
     inkscape:cy="50"
     inkscape:window-x="0"
     inkscape:window-y="1"
     inkscape:window-maximized="1"
     inkscape:current-layer="svg202" />
  <title
     id="title204">hand_file</title>
  <path
     d="m 36.37,78 0.63,0 0,-4.83 5.17,-5.17 10,0 8.32,-8.32 4.35,-1.42 L 76,60 94,60 94,80 76.83,80 62.83,94 37.59,94 14,83.32 l 0,-6.76 7,-5 z M 18,80.68 38.41,90 l 22.76,0 14,-14 14.83,0 0,-12 -14.13,0 -10.7,-1.64 -2.53,0.83 -8.81,8.81 -10,0 -2.83,2.83 0,3.17 14.17,0 5.42,-5.41 2.82,2.82 -6.58,6.59 -21.2,0 -14,-5.93 -3.63,2.56 z"
     id="path206"
     inkscape:connector-curvature="0"
     style="fill:#ff0000;stroke:#000000" />
  <path
     d="M 19.17,6 50,6 50,58 6,58 6,19.17 Z M 10,54 46,54 46,10 20.83,10 10,20.83 Z"
     id="path208"
     inkscape:connector-curvature="0" />
  <rect
     x="-40"
     y="28"
     width="24"
     height="4"
     id="rect210"
     transform="scale(-1,1)" />
  <rect
     x="-40"
     y="36"
     width="24"
     height="4"
     id="rect212"
     transform="scale(-1,1)" />
  <rect
     x="-40"
     y="44"
     width="14"
     height="4"
     id="rect214"
     transform="scale(-1,1)" />
</svg>
