<?xml version="1.0" encoding="UTF-8" standalone="no"?>
<svg
   xmlns:dc="http://purl.org/dc/elements/1.1/"
   xmlns:cc="http://creativecommons.org/ns#"
   xmlns:rdf="http://www.w3.org/1999/02/22-rdf-syntax-ns#"
   xmlns:svg="http://www.w3.org/2000/svg"
   xmlns="http://www.w3.org/2000/svg"
   xmlns:sodipodi="http://sodipodi.sourceforge.net/DTD/sodipodi-0.dtd"
   xmlns:inkscape="http://www.inkscape.org/namespaces/inkscape"
   data-name="Warstwa 1"
   viewBox="0 0 100 100"
   x="0px"
   y="0px"
   id="svg2"
   version="1.1"
   inkscape:version="0.91 r13725"
   sodipodi:docname="the_magician_scissors.svg">
  <metadata
     id="metadata20">
    <rdf:RDF>
      <cc:Work
         rdf:about="">
        <dc:format>image/svg+xml</dc:format>
        <dc:type
           rdf:resource="http://purl.org/dc/dcmitype/StillImage" />
      </cc:Work>
    </rdf:RDF>
  </metadata>
  <defs
     id="defs18" />
  <sodipodi:namedview
     pagecolor="#ffffff"
     bordercolor="#666666"
     borderopacity="1"
     objecttolerance="10"
     gridtolerance="10"
     guidetolerance="10"
     inkscape:pageopacity="0"
     inkscape:pageshadow="2"
     inkscape:window-width="1280"
     inkscape:window-height="698"
     id="namedview16"
     showgrid="false"
     inkscape:zoom="2.36"
     inkscape:cx="50"
     inkscape:cy="50"
     inkscape:window-x="0"
     inkscape:window-y="1"
     inkscape:window-maximized="1"
     inkscape:current-layer="svg2" />
  <title
     id="title4">hand_wind</title>
  <path
     d="m 30.37,78 0.63,0 0,-4.83 5.17,-5.17 10,0 8.32,-8.32 4.35,-1.42 L 70,60 88,60 88,80 70.83,80 56.83,94 31.59,94 8,83.32 l 0,-6.76 7,-5 z M 12,80.68 32.41,90 l 22.76,0 14,-14 14.83,0 0,-12 -14.13,0 -10.7,-1.64 -2.53,0.83 -8.81,8.81 -10,0 -2.83,2.83 0,3.17 14.17,0 5.41,-5.41 2.83,2.83 -6.58,6.58 -21.2,0 -14,-5.93 -3.63,2.56 z"
     id="path6"
     inkscape:connector-curvature="0"
     style="fill:#ff0000;stroke:#000000" />
  <polygon
     points="70,58 70,62 75.83,62 80,57.83 80,50.17 75.83,46 38,46 38,50 74.17,50 76,51.83 76,56.17 74.17,58 74.17,58 "
     id="polygon8"
     transform="matrix(-1,0,0,1,94,0)" />
  <polygon
     points="30,42 79.17,42 84,46.83 84,52 88,52 88,45.17 80.83,38 30,38 30,38 "
     id="polygon10"
     transform="matrix(-1,0,0,1,94,0)" />
  <polygon
     points="80,14.17 75.83,10 70,10 70,14 74.17,14 76,15.83 76,20.17 74.17,22 14,22 14,26 75.83,26 80,21.83 80,21.83 "
     id="polygon12"
     transform="matrix(-1,0,0,1,94,0)" />
  <polygon
     points="84,25.17 79.17,30 22,30 22,34 80.83,34 88,26.83 88,20 84,20 84,20 "
     id="polygon14"
     transform="matrix(-1,0,0,1,94,0)" />
</svg>
