<?xml version="1.0" encoding="UTF-8" standalone="no"?>
<svg
   xmlns:dc="http://purl.org/dc/elements/1.1/"
   xmlns:cc="http://creativecommons.org/ns#"
   xmlns:rdf="http://www.w3.org/1999/02/22-rdf-syntax-ns#"
   xmlns:svg="http://www.w3.org/2000/svg"
   xmlns="http://www.w3.org/2000/svg"
   xmlns:sodipodi="http://sodipodi.sourceforge.net/DTD/sodipodi-0.dtd"
   xmlns:inkscape="http://www.inkscape.org/namespaces/inkscape"
   data-name="Warstwa 1"
   viewBox="0 0 100 100"
   x="0px"
   y="0px"
   id="svg222"
   version="1.1"
   inkscape:version="0.91 r13725"
   sodipodi:docname="the_magician_rock.svg">
  <metadata
     id="metadata234">
    <rdf:RDF>
      <cc:Work
         rdf:about="">
        <dc:format>image/svg+xml</dc:format>
        <dc:type
           rdf:resource="http://purl.org/dc/dcmitype/StillImage" />
      </cc:Work>
    </rdf:RDF>
  </metadata>
  <defs
     id="defs232" />
  <sodipodi:namedview
     pagecolor="#ffffff"
     bordercolor="#666666"
     borderopacity="1"
     objecttolerance="10"
     gridtolerance="10"
     guidetolerance="10"
     inkscape:pageopacity="0"
     inkscape:pageshadow="2"
     inkscape:window-width="1280"
     inkscape:window-height="698"
     id="namedview230"
     showgrid="false"
     inkscape:zoom="2.36"
     inkscape:cx="50"
     inkscape:cy="50"
     inkscape:window-x="0"
     inkscape:window-y="1"
     inkscape:window-maximized="1"
     inkscape:current-layer="svg222" />
  <title
     id="title224">hand_earth</title>
  <path
     d="m 32.37,78 0.63,0 0,-4.83 5.17,-5.17 10,0 8.32,-8.32 4.35,-1.42 L 72,60 90,60 90,80 72.83,80 58.83,94 33.59,94 10,83.32 l 0,-6.76 7,-5 z M 14,80.68 34.41,90 l 22.76,0 14,-14 14.83,0 0,-12 -14.13,0 -10.7,-1.64 -2.53,0.83 -8.81,8.81 -10,0 -2.83,2.83 0,3.17 14.17,0 5.41,-5.41 2.83,2.83 -6.58,6.58 -21.2,0 -14,-5.93 -3.63,2.56 z"
     id="path226"
     inkscape:connector-curvature="0"
     style="fill:#ff0000;stroke:#000000" />
  <path
     d="M 36.3,7.48 57,28.17 57,49 40.63,62.1 14.92,59.96 6,47.65 6,25.88 Z M 10,44.19 26.51,41.19 30.69,29.52 22,20.84 10,28.13 Z M 35.7,12.52 25.53,18.7 33.83,27 50.17,27 Z M 53,31 34.41,31 30.23,42.7 40.41,57.11 53,47 Z M 17.08,56.08 35.89,57.65 27.1,45.19 11.23,48 Z"
     id="path228"
     inkscape:connector-curvature="0" />
</svg>
